STARTFONT 2.1
FONT -SGI-Screen-Bold-R-Normal--12-120-72-72-M-80-ISO8859-1
SIZE 12 72 72
FONTBOUNDINGBOX 8 12 0 -2
COMMENT "Generated by fontforge, http://fontforge.sourceforge.net"
STARTPROPERTIES 23
_DEC_DEVICE_FONTNAMES "FM=Screen-Bold"
FONTNAME_REGISTRY ""
FAMILY_NAME "Screen"
FOUNDRY "SGI"
WEIGHT_NAME "Bold"
SLANT "R"
SETWIDTH_NAME "Normal"
ADD_STYLE_NAME ""
PIXEL_SIZE 12
POINT_SIZE 120
RESOLUTION_X 72
RESOLUTION_Y 72
SPACING "M"
AVERAGE_WIDTH 80
CHARSET_REGISTRY "ISO8859"
CHARSET_ENCODING "1"
CHARSET_COLLECTIONS "ASCII ISO8859-1"
FULL_NAME "Screen Bold"
CAP_HEIGHT 8
X_HEIGHT 6
WEIGHT 10
RESOLUTION 99
QUAD_WIDTH 8
ENDPROPERTIES
CHARS 192
STARTCHAR space
ENCODING 32
SWIDTH 667 0
DWIDTH 8 0
BBX 1 1 7 -2
BITMAP
00
ENDCHAR
STARTCHAR exclam
ENCODING 33
SWIDTH 667 0
DWIDTH 8 0
BBX 2 8 3 0
BITMAP
C0
C0
C0
C0
C0
00
C0
C0
ENDCHAR
STARTCHAR quotedbl
ENCODING 34
SWIDTH 667 0
DWIDTH 8 0
BBX 5 4 1 5
BITMAP
D8
D8
D8
D8
ENDCHAR
STARTCHAR numbersign
ENCODING 35
SWIDTH 667 0
DWIDTH 8 0
BBX 8 8 0 0
BITMAP
1B
1B
7F
36
36
FF
6C
6C
ENDCHAR
STARTCHAR dollar
ENCODING 36
SWIDTH 667 0
DWIDTH 8 0
BBX 6 9 1 -1
BITMAP
30
78
B4
70
38
B4
B4
78
30
ENDCHAR
STARTCHAR percent
ENCODING 37
SWIDTH 667 0
DWIDTH 8 0
BBX 7 8 0 0
BITMAP
6C
AC
B8
D8
36
3A
6A
6C
ENDCHAR
STARTCHAR ampersand
ENCODING 38
SWIDTH 667 0
DWIDTH 8 0
BBX 7 8 0 0
BITMAP
70
D8
D8
70
DE
CC
CC
76
ENDCHAR
STARTCHAR quotesingle
ENCODING 39
SWIDTH 667 0
DWIDTH 8 0
BBX 2 4 3 4
BITMAP
C0
C0
C0
C0
ENDCHAR
STARTCHAR parenleft
ENCODING 40
SWIDTH 667 0
DWIDTH 8 0
BBX 4 10 2 -1
BITMAP
30
60
60
C0
C0
C0
C0
60
60
30
ENDCHAR
STARTCHAR parenright
ENCODING 41
SWIDTH 667 0
DWIDTH 8 0
BBX 4 10 2 -1
BITMAP
C0
60
60
30
30
30
30
60
60
C0
ENDCHAR
STARTCHAR asterisk
ENCODING 42
SWIDTH 667 0
DWIDTH 8 0
BBX 6 7 1 2
BITMAP
30
B4
FC
78
FC
B4
30
ENDCHAR
STARTCHAR plus
ENCODING 43
SWIDTH 667 0
DWIDTH 8 0
BBX 6 6 1 1
BITMAP
30
30
FC
FC
30
30
ENDCHAR
STARTCHAR comma
ENCODING 44
SWIDTH 667 0
DWIDTH 8 0
BBX 3 3 2 -1
BITMAP
60
60
C0
ENDCHAR
STARTCHAR hyphen
ENCODING 45
SWIDTH 667 0
DWIDTH 8 0
BBX 4 2 2 3
BITMAP
F0
F0
ENDCHAR
STARTCHAR period
ENCODING 46
SWIDTH 667 0
DWIDTH 8 0
BBX 2 2 3 0
BITMAP
C0
C0
ENDCHAR
STARTCHAR slash
ENCODING 47
SWIDTH 667 0
DWIDTH 8 0
BBX 5 8 2 0
BITMAP
18
18
30
30
60
60
C0
C0
ENDCHAR
STARTCHAR zero
ENCODING 48
SWIDTH 667 0
DWIDTH 8 0
BBX 6 8 1 0
BITMAP
78
CC
DC
FC
EC
CC
CC
78
ENDCHAR
STARTCHAR one
ENCODING 49
SWIDTH 667 0
DWIDTH 8 0
BBX 4 8 2 0
BITMAP
60
E0
60
60
60
60
60
F0
ENDCHAR
STARTCHAR two
ENCODING 50
SWIDTH 667 0
DWIDTH 8 0
BBX 6 8 1 0
BITMAP
78
CC
CC
18
30
60
C0
FC
ENDCHAR
STARTCHAR three
ENCODING 51
SWIDTH 667 0
DWIDTH 8 0
BBX 6 8 1 0
BITMAP
78
CC
0C
38
0C
0C
CC
78
ENDCHAR
STARTCHAR four
ENCODING 52
SWIDTH 667 0
DWIDTH 8 0
BBX 7 8 0 0
BITMAP
0C
1C
3C
6C
CC
FE
0C
0C
ENDCHAR
STARTCHAR five
ENCODING 53
SWIDTH 667 0
DWIDTH 8 0
BBX 6 8 1 0
BITMAP
FC
C0
C0
F8
0C
0C
CC
78
ENDCHAR
STARTCHAR six
ENCODING 54
SWIDTH 667 0
DWIDTH 8 0
BBX 6 8 1 0
BITMAP
78
C4
C0
F8
CC
CC
CC
78
ENDCHAR
STARTCHAR seven
ENCODING 55
SWIDTH 667 0
DWIDTH 8 0
BBX 6 8 1 0
BITMAP
FC
04
0C
18
30
30
60
60
ENDCHAR
STARTCHAR eight
ENCODING 56
SWIDTH 667 0
DWIDTH 8 0
BBX 6 8 1 0
BITMAP
78
CC
CC
78
CC
CC
CC
78
ENDCHAR
STARTCHAR nine
ENCODING 57
SWIDTH 667 0
DWIDTH 8 0
BBX 6 8 1 0
BITMAP
78
CC
CC
CC
7C
0C
8C
78
ENDCHAR
STARTCHAR colon
ENCODING 58
SWIDTH 667 0
DWIDTH 8 0
BBX 2 6 3 0
BITMAP
C0
C0
00
00
C0
C0
ENDCHAR
STARTCHAR semicolon
ENCODING 59
SWIDTH 667 0
DWIDTH 8 0
BBX 3 7 2 -1
BITMAP
60
60
00
00
60
60
C0
ENDCHAR
STARTCHAR less
ENCODING 60
SWIDTH 667 0
DWIDTH 8 0
BBX 5 9 1 -1
BITMAP
08
18
30
60
C0
60
30
18
08
ENDCHAR
STARTCHAR equal
ENCODING 61
SWIDTH 667 0
DWIDTH 8 0
BBX 6 5 1 1
BITMAP
FC
FC
00
FC
FC
ENDCHAR
STARTCHAR greater
ENCODING 62
SWIDTH 667 0
DWIDTH 8 0
BBX 5 9 2 -1
BITMAP
80
C0
60
30
18
30
60
C0
80
ENDCHAR
STARTCHAR question
ENCODING 63
SWIDTH 667 0
DWIDTH 8 0
BBX 6 9 1 0
BITMAP
78
CC
CC
18
30
30
00
30
30
ENDCHAR
STARTCHAR at
ENCODING 64
SWIDTH 667 0
DWIDTH 8 0
BBX 6 9 1 -1
BITMAP
38
64
CC
D4
D4
DC
C0
64
38
ENDCHAR
STARTCHAR A
ENCODING 65
SWIDTH 667 0
DWIDTH 8 0
BBX 7 8 0 0
BITMAP
10
38
38
6C
6C
FE
C6
C6
ENDCHAR
STARTCHAR B
ENCODING 66
SWIDTH 667 0
DWIDTH 8 0
BBX 6 8 1 0
BITMAP
F8
CC
CC
F8
CC
CC
CC
F8
ENDCHAR
STARTCHAR C
ENCODING 67
SWIDTH 667 0
DWIDTH 8 0
BBX 6 8 1 0
BITMAP
78
CC
C0
C0
C0
C0
CC
78
ENDCHAR
STARTCHAR D
ENCODING 68
SWIDTH 667 0
DWIDTH 8 0
BBX 6 8 1 0
BITMAP
F8
CC
CC
CC
CC
CC
CC
F8
ENDCHAR
STARTCHAR E
ENCODING 69
SWIDTH 667 0
DWIDTH 8 0
BBX 6 8 1 0
BITMAP
FC
C0
C0
F8
C0
C0
C0
FC
ENDCHAR
STARTCHAR F
ENCODING 70
SWIDTH 667 0
DWIDTH 8 0
BBX 6 8 1 0
BITMAP
FC
C0
C0
F8
C0
C0
C0
C0
ENDCHAR
STARTCHAR G
ENCODING 71
SWIDTH 667 0
DWIDTH 8 0
BBX 6 8 1 0
BITMAP
78
CC
C0
C0
DC
CC
CC
74
ENDCHAR
STARTCHAR H
ENCODING 72
SWIDTH 667 0
DWIDTH 8 0
BBX 6 8 1 0
BITMAP
CC
CC
CC
FC
CC
CC
CC
CC
ENDCHAR
STARTCHAR I
ENCODING 73
SWIDTH 667 0
DWIDTH 8 0
BBX 4 8 2 0
BITMAP
F0
60
60
60
60
60
60
F0
ENDCHAR
STARTCHAR J
ENCODING 74
SWIDTH 667 0
DWIDTH 8 0
BBX 6 8 1 0
BITMAP
0C
0C
0C
0C
0C
CC
CC
78
ENDCHAR
STARTCHAR K
ENCODING 75
SWIDTH 667 0
DWIDTH 8 0
BBX 6 8 1 0
BITMAP
C4
CC
D8
F0
D8
D8
CC
CC
ENDCHAR
STARTCHAR L
ENCODING 76
SWIDTH 667 0
DWIDTH 8 0
BBX 6 8 1 0
BITMAP
C0
C0
C0
C0
C0
C0
C0
FC
ENDCHAR
STARTCHAR M
ENCODING 77
SWIDTH 667 0
DWIDTH 8 0
BBX 7 8 0 0
BITMAP
C6
C6
EE
EE
FE
D6
D6
C6
ENDCHAR
STARTCHAR N
ENCODING 78
SWIDTH 667 0
DWIDTH 8 0
BBX 6 8 1 0
BITMAP
CC
CC
EC
EC
FC
DC
DC
CC
ENDCHAR
STARTCHAR O
ENCODING 79
SWIDTH 667 0
DWIDTH 8 0
BBX 6 8 1 0
BITMAP
78
CC
CC
CC
CC
CC
CC
78
ENDCHAR
STARTCHAR P
ENCODING 80
SWIDTH 667 0
DWIDTH 8 0
BBX 6 8 1 0
BITMAP
F8
CC
CC
CC
F8
C0
C0
C0
ENDCHAR
STARTCHAR Q
ENCODING 81
SWIDTH 667 0
DWIDTH 8 0
BBX 6 10 1 -2
BITMAP
78
CC
CC
CC
CC
CC
EC
78
10
0C
ENDCHAR
STARTCHAR R
ENCODING 82
SWIDTH 667 0
DWIDTH 8 0
BBX 6 8 1 0
BITMAP
F8
CC
CC
F8
D0
D8
CC
CC
ENDCHAR
STARTCHAR S
ENCODING 83
SWIDTH 667 0
DWIDTH 8 0
BBX 6 8 1 0
BITMAP
78
CC
C0
70
38
0C
CC
78
ENDCHAR
STARTCHAR T
ENCODING 84
SWIDTH 667 0
DWIDTH 8 0
BBX 6 8 1 0
BITMAP
FC
30
30
30
30
30
30
30
ENDCHAR
STARTCHAR U
ENCODING 85
SWIDTH 667 0
DWIDTH 8 0
BBX 6 8 1 0
BITMAP
CC
CC
CC
CC
CC
CC
CC
78
ENDCHAR
STARTCHAR V
ENCODING 86
SWIDTH 667 0
DWIDTH 8 0
BBX 6 8 1 0
BITMAP
CC
CC
CC
CC
78
78
30
30
ENDCHAR
STARTCHAR W
ENCODING 87
SWIDTH 667 0
DWIDTH 8 0
BBX 7 8 0 0
BITMAP
C6
C6
D6
54
7C
7C
28
28
ENDCHAR
STARTCHAR X
ENCODING 88
SWIDTH 667 0
DWIDTH 8 0
BBX 6 8 1 0
BITMAP
CC
CC
78
30
78
CC
CC
CC
ENDCHAR
STARTCHAR Y
ENCODING 89
SWIDTH 667 0
DWIDTH 8 0
BBX 6 8 1 0
BITMAP
CC
CC
CC
78
78
30
30
30
ENDCHAR
STARTCHAR Z
ENCODING 90
SWIDTH 667 0
DWIDTH 8 0
BBX 6 8 1 0
BITMAP
FC
0C
18
30
30
60
C0
FC
ENDCHAR
STARTCHAR bracketleft
ENCODING 91
SWIDTH 667 0
DWIDTH 8 0
BBX 4 9 2 -1
BITMAP
F0
C0
C0
C0
C0
C0
C0
C0
F0
ENDCHAR
STARTCHAR backslash
ENCODING 92
SWIDTH 667 0
DWIDTH 8 0
BBX 5 8 1 0
BITMAP
C0
C0
60
60
30
30
18
18
ENDCHAR
STARTCHAR bracketright
ENCODING 93
SWIDTH 667 0
DWIDTH 8 0
BBX 4 9 2 -1
BITMAP
F0
30
30
30
30
30
30
30
F0
ENDCHAR
STARTCHAR asciicircum
ENCODING 94
SWIDTH 667 0
DWIDTH 8 0
BBX 5 3 1 5
BITMAP
20
70
D8
ENDCHAR
STARTCHAR underscore
ENCODING 95
SWIDTH 667 0
DWIDTH 8 0
BBX 8 2 0 -2
BITMAP
FF
FF
ENDCHAR
STARTCHAR grave
ENCODING 96
SWIDTH 667 0
DWIDTH 8 0
BBX 3 2 2 7
BITMAP
C0
60
ENDCHAR
STARTCHAR a
ENCODING 97
SWIDTH 667 0
DWIDTH 8 0
BBX 6 6 1 0
BITMAP
78
0C
7C
CC
CC
7C
ENDCHAR
STARTCHAR b
ENCODING 98
SWIDTH 667 0
DWIDTH 8 0
BBX 6 8 1 0
BITMAP
C0
C0
D8
EC
CC
CC
EC
D8
ENDCHAR
STARTCHAR c
ENCODING 99
SWIDTH 667 0
DWIDTH 8 0
BBX 6 6 1 0
BITMAP
78
CC
C0
C0
CC
78
ENDCHAR
STARTCHAR d
ENCODING 100
SWIDTH 667 0
DWIDTH 8 0
BBX 6 8 1 0
BITMAP
0C
0C
6C
DC
CC
CC
DC
6C
ENDCHAR
STARTCHAR e
ENCODING 101
SWIDTH 667 0
DWIDTH 8 0
BBX 6 6 1 0
BITMAP
78
CC
FC
C0
CC
78
ENDCHAR
STARTCHAR f
ENCODING 102
SWIDTH 667 0
DWIDTH 8 0
BBX 6 8 1 0
BITMAP
1C
30
FC
30
30
30
30
30
ENDCHAR
STARTCHAR g
ENCODING 103
SWIDTH 667 0
DWIDTH 8 0
BBX 6 8 1 -2
BITMAP
6C
DC
CC
CC
DC
6C
0C
F8
ENDCHAR
STARTCHAR h
ENCODING 104
SWIDTH 667 0
DWIDTH 8 0
BBX 6 8 1 0
BITMAP
C0
C0
D8
EC
CC
CC
CC
CC
ENDCHAR
STARTCHAR i
ENCODING 105
SWIDTH 667 0
DWIDTH 8 0
BBX 4 8 2 0
BITMAP
30
00
F0
30
30
30
30
30
ENDCHAR
STARTCHAR j
ENCODING 106
SWIDTH 667 0
DWIDTH 8 0
BBX 4 10 2 -2
BITMAP
30
00
F0
30
30
30
30
30
30
E0
ENDCHAR
STARTCHAR k
ENCODING 107
SWIDTH 667 0
DWIDTH 8 0
BBX 6 8 1 0
BITMAP
C0
C0
CC
D8
F0
D8
CC
CC
ENDCHAR
STARTCHAR l
ENCODING 108
SWIDTH 667 0
DWIDTH 8 0
BBX 4 8 2 0
BITMAP
F0
30
30
30
30
30
30
30
ENDCHAR
STARTCHAR m
ENCODING 109
SWIDTH 667 0
DWIDTH 8 0
BBX 7 6 0 0
BITMAP
EC
FE
D6
D6
D6
D6
ENDCHAR
STARTCHAR n
ENCODING 110
SWIDTH 667 0
DWIDTH 8 0
BBX 6 6 1 0
BITMAP
D8
EC
CC
CC
CC
CC
ENDCHAR
STARTCHAR o
ENCODING 111
SWIDTH 667 0
DWIDTH 8 0
BBX 6 6 1 0
BITMAP
78
CC
CC
CC
CC
78
ENDCHAR
STARTCHAR p
ENCODING 112
SWIDTH 667 0
DWIDTH 8 0
BBX 6 8 1 -2
BITMAP
D8
EC
CC
CC
EC
D8
C0
C0
ENDCHAR
STARTCHAR q
ENCODING 113
SWIDTH 667 0
DWIDTH 8 0
BBX 6 8 1 -2
BITMAP
6C
DC
CC
CC
DC
6C
0C
0C
ENDCHAR
STARTCHAR r
ENCODING 114
SWIDTH 667 0
DWIDTH 8 0
BBX 6 6 1 0
BITMAP
D8
EC
C0
C0
C0
C0
ENDCHAR
STARTCHAR s
ENCODING 115
SWIDTH 667 0
DWIDTH 8 0
BBX 6 6 1 0
BITMAP
78
C0
78
0C
CC
78
ENDCHAR
STARTCHAR t
ENCODING 116
SWIDTH 667 0
DWIDTH 8 0
BBX 6 8 1 0
BITMAP
30
30
FC
30
30
30
30
1C
ENDCHAR
STARTCHAR u
ENCODING 117
SWIDTH 667 0
DWIDTH 8 0
BBX 6 6 1 0
BITMAP
CC
CC
CC
CC
DC
6C
ENDCHAR
STARTCHAR v
ENCODING 118
SWIDTH 667 0
DWIDTH 8 0
BBX 6 6 1 0
BITMAP
CC
CC
CC
48
78
30
ENDCHAR
STARTCHAR w
ENCODING 119
SWIDTH 667 0
DWIDTH 8 0
BBX 7 6 0 0
BITMAP
C6
C6
D6
D6
FE
6C
ENDCHAR
STARTCHAR x
ENCODING 120
SWIDTH 667 0
DWIDTH 8 0
BBX 6 6 1 0
BITMAP
CC
78
30
78
CC
CC
ENDCHAR
STARTCHAR y
ENCODING 121
SWIDTH 667 0
DWIDTH 8 0
BBX 6 8 1 -2
BITMAP
CC
CC
CC
CC
CC
7C
0C
F8
ENDCHAR
STARTCHAR z
ENCODING 122
SWIDTH 667 0
DWIDTH 8 0
BBX 6 6 1 0
BITMAP
FC
18
30
60
C0
FC
ENDCHAR
STARTCHAR braceleft
ENCODING 123
SWIDTH 667 0
DWIDTH 8 0
BBX 5 10 2 -1
BITMAP
38
60
60
60
C0
60
60
60
60
38
ENDCHAR
STARTCHAR bar
ENCODING 124
SWIDTH 667 0
DWIDTH 8 0
BBX 2 10 3 -1
BITMAP
C0
C0
C0
C0
C0
C0
C0
C0
C0
C0
ENDCHAR
STARTCHAR braceright
ENCODING 125
SWIDTH 667 0
DWIDTH 8 0
BBX 5 10 1 -1
BITMAP
E0
30
30
30
18
30
30
30
30
E0
ENDCHAR
STARTCHAR asciitilde
ENCODING 126
SWIDTH 667 0
DWIDTH 8 0
BBX 6 3 1 2
BITMAP
64
FC
98
ENDCHAR
STARTCHAR exclamdown
ENCODING 161
SWIDTH 667 0
DWIDTH 8 0
BBX 2 8 3 -2
BITMAP
C0
C0
00
C0
C0
C0
C0
C0
ENDCHAR
STARTCHAR cent
ENCODING 162
SWIDTH 667 0
DWIDTH 8 0
BBX 6 9 1 0
BITMAP
30
30
78
CC
C0
CC
78
30
30
ENDCHAR
STARTCHAR sterling
ENCODING 163
SWIDTH 667 0
DWIDTH 8 0
BBX 6 9 1 0
BITMAP
38
6C
60
60
F0
60
60
CC
F8
ENDCHAR
STARTCHAR currency
ENCODING 164
SWIDTH 667 0
DWIDTH 8 0
BBX 6 6 1 1
BITMAP
CC
78
48
48
78
CC
ENDCHAR
STARTCHAR yen
ENCODING 165
SWIDTH 667 0
DWIDTH 8 0
BBX 6 8 1 0
BITMAP
84
CC
78
30
FC
30
FC
30
ENDCHAR
STARTCHAR brokenbar
ENCODING 166
SWIDTH 667 0
DWIDTH 8 0
BBX 2 10 3 -1
BITMAP
C0
C0
C0
C0
C0
00
C0
C0
C0
C0
ENDCHAR
STARTCHAR section
ENCODING 167
SWIDTH 667 0
DWIDTH 8 0
BBX 6 10 1 -1
BITMAP
78
CC
60
F8
8C
C4
7C
18
CC
78
ENDCHAR
STARTCHAR dieresis
ENCODING 168
SWIDTH 667 0
DWIDTH 8 0
BBX 5 2 1 7
BITMAP
D8
D8
ENDCHAR
STARTCHAR copyright
ENCODING 169
SWIDTH 667 0
DWIDTH 8 0
BBX 7 7 0 0
BITMAP
7C
C6
F6
E6
F6
C6
7C
ENDCHAR
STARTCHAR ordfeminine
ENCODING 170
SWIDTH 667 0
DWIDTH 8 0
BBX 5 6 1 3
BITMAP
F0
58
D8
F8
00
F8
ENDCHAR
STARTCHAR guillemotleft
ENCODING 171
SWIDTH 667 0
DWIDTH 8 0
BBX 7 6 0 0
BITMAP
36
6C
D8
D8
6C
36
ENDCHAR
STARTCHAR logicalnot
ENCODING 172
SWIDTH 667 0
DWIDTH 8 0
BBX 6 3 1 2
BITMAP
FC
FC
0C
ENDCHAR
STARTCHAR registered
ENCODING 174
SWIDTH 667 0
DWIDTH 8 0
BBX 7 7 0 0
BITMAP
7C
C6
F6
F6
EE
C6
7C
ENDCHAR
STARTCHAR macron
ENCODING 175
SWIDTH 667 0
DWIDTH 8 0
BBX 4 2 2 7
BITMAP
F0
F0
ENDCHAR
STARTCHAR degree
ENCODING 176
SWIDTH 667 0
DWIDTH 8 0
BBX 3 3 2 4
BITMAP
E0
A0
E0
ENDCHAR
STARTCHAR plusminus
ENCODING 177
SWIDTH 667 0
DWIDTH 8 0
BBX 6 7 1 0
BITMAP
30
30
FC
30
30
00
FC
ENDCHAR
STARTCHAR twosuperior
ENCODING 178
SWIDTH 667 0
DWIDTH 8 0
BBX 4 5 2 5
BITMAP
E0
30
60
C0
F0
ENDCHAR
STARTCHAR threesuperior
ENCODING 179
SWIDTH 667 0
DWIDTH 8 0
BBX 4 5 2 5
BITMAP
F0
30
60
30
F0
ENDCHAR
STARTCHAR acute
ENCODING 180
SWIDTH 667 0
DWIDTH 8 0
BBX 3 2 2 7
BITMAP
60
C0
ENDCHAR
STARTCHAR mu
ENCODING 181
SWIDTH 667 0
DWIDTH 8 0
BBX 6 8 1 -2
BITMAP
CC
CC
CC
CC
DC
EC
C0
C0
ENDCHAR
STARTCHAR paragraph
ENCODING 182
SWIDTH 667 0
DWIDTH 8 0
BBX 8 10 0 -1
BITMAP
7F
F6
B6
F6
76
36
36
36
36
36
ENDCHAR
STARTCHAR periodcentered
ENCODING 183
SWIDTH 667 0
DWIDTH 8 0
BBX 2 2 3 3
BITMAP
C0
C0
ENDCHAR
STARTCHAR cedilla
ENCODING 184
SWIDTH 667 0
DWIDTH 8 0
BBX 2 2 3 -2
BITMAP
40
C0
ENDCHAR
STARTCHAR onesuperior
ENCODING 185
SWIDTH 667 0
DWIDTH 8 0
BBX 4 5 2 5
BITMAP
60
E0
60
60
F0
ENDCHAR
STARTCHAR ordmasculine
ENCODING 186
SWIDTH 667 0
DWIDTH 8 0
BBX 5 6 1 3
BITMAP
70
D8
D8
70
00
F8
ENDCHAR
STARTCHAR guillemotright
ENCODING 187
SWIDTH 667 0
DWIDTH 8 0
BBX 7 6 0 0
BITMAP
D8
6C
36
36
6C
D8
ENDCHAR
STARTCHAR onequarter
ENCODING 188
SWIDTH 667 0
DWIDTH 8 0
BBX 7 11 1 -1
BITMAP
60
E0
60
64
F8
10
2C
5C
94
3E
0C
ENDCHAR
STARTCHAR onehalf
ENCODING 189
SWIDTH 667 0
DWIDTH 8 0
BBX 7 11 1 -1
BITMAP
60
E0
60
64
F8
10
3C
46
8C
18
1E
ENDCHAR
STARTCHAR threequarters
ENCODING 190
SWIDTH 667 0
DWIDTH 8 0
BBX 7 11 1 -1
BITMAP
F0
30
60
34
F8
10
2C
5C
94
3E
0C
ENDCHAR
STARTCHAR questiondown
ENCODING 191
SWIDTH 667 0
DWIDTH 8 0
BBX 6 9 1 -2
BITMAP
30
30
00
30
30
60
CC
CC
78
ENDCHAR
STARTCHAR Agrave
ENCODING 192
SWIDTH 667 0
DWIDTH 8 0
BBX 7 10 0 0
BITMAP
30
18
00
10
38
38
6C
6C
FE
C6
ENDCHAR
STARTCHAR Aacute
ENCODING 193
SWIDTH 667 0
DWIDTH 8 0
BBX 7 10 0 0
BITMAP
18
30
00
10
38
38
6C
6C
FE
C6
ENDCHAR
STARTCHAR Acircumflex
ENCODING 194
SWIDTH 667 0
DWIDTH 8 0
BBX 7 10 0 0
BITMAP
38
6C
00
10
38
38
6C
6C
FE
C6
ENDCHAR
STARTCHAR Atilde
ENCODING 195
SWIDTH 667 0
DWIDTH 8 0
BBX 7 10 0 0
BITMAP
74
5C
00
10
38
38
6C
6C
FE
C6
ENDCHAR
STARTCHAR Adieresis
ENCODING 196
SWIDTH 667 0
DWIDTH 8 0
BBX 7 10 0 0
BITMAP
6C
6C
00
10
38
38
6C
6C
FE
C6
ENDCHAR
STARTCHAR Aring
ENCODING 197
SWIDTH 667 0
DWIDTH 8 0
BBX 7 10 0 0
BITMAP
38
28
38
10
38
38
6C
6C
FE
C6
ENDCHAR
STARTCHAR AE
ENCODING 198
SWIDTH 667 0
DWIDTH 8 0
BBX 7 8 0 0
BITMAP
3E
78
58
DC
F8
D8
D8
DE
ENDCHAR
STARTCHAR Ccedilla
ENCODING 199
SWIDTH 667 0
DWIDTH 8 0
BBX 6 10 1 -2
BITMAP
78
CC
C0
C0
C0
C0
CC
78
10
30
ENDCHAR
STARTCHAR Egrave
ENCODING 200
SWIDTH 667 0
DWIDTH 8 0
BBX 6 10 1 0
BITMAP
60
30
00
FC
C0
C0
F8
C0
C0
FC
ENDCHAR
STARTCHAR Eacute
ENCODING 201
SWIDTH 667 0
DWIDTH 8 0
BBX 6 10 1 0
BITMAP
18
30
00
FC
C0
C0
F8
C0
C0
FC
ENDCHAR
STARTCHAR Ecircumflex
ENCODING 202
SWIDTH 667 0
DWIDTH 8 0
BBX 6 10 1 0
BITMAP
38
6C
00
FC
C0
C0
F8
C0
C0
FC
ENDCHAR
STARTCHAR Edieresis
ENCODING 203
SWIDTH 667 0
DWIDTH 8 0
BBX 6 10 1 0
BITMAP
6C
6C
00
FC
C0
C0
F8
C0
C0
FC
ENDCHAR
STARTCHAR Igrave
ENCODING 204
SWIDTH 667 0
DWIDTH 8 0
BBX 4 10 2 0
BITMAP
C0
60
00
F0
60
60
60
60
60
F0
ENDCHAR
STARTCHAR Iacute
ENCODING 205
SWIDTH 667 0
DWIDTH 8 0
BBX 4 10 2 0
BITMAP
30
60
00
F0
60
60
60
60
60
F0
ENDCHAR
STARTCHAR Icircumflex
ENCODING 206
SWIDTH 667 0
DWIDTH 8 0
BBX 5 10 2 0
BITMAP
70
D8
00
F0
60
60
60
60
60
F0
ENDCHAR
STARTCHAR Idieresis
ENCODING 207
SWIDTH 667 0
DWIDTH 8 0
BBX 5 10 2 0
BITMAP
D8
D8
00
F0
60
60
60
60
60
F0
ENDCHAR
STARTCHAR Eth
ENCODING 208
SWIDTH 667 0
DWIDTH 8 0
BBX 7 7 0 0
BITMAP
7C
66
66
F6
66
66
7C
ENDCHAR
STARTCHAR Ntilde
ENCODING 209
SWIDTH 667 0
DWIDTH 8 0
BBX 6 10 1 0
BITMAP
E8
B8
00
CC
EC
EC
FC
DC
DC
CC
ENDCHAR
STARTCHAR Ograve
ENCODING 210
SWIDTH 667 0
DWIDTH 8 0
BBX 6 10 1 0
BITMAP
60
30
00
78
CC
CC
CC
CC
CC
78
ENDCHAR
STARTCHAR Oacute
ENCODING 211
SWIDTH 667 0
DWIDTH 8 0
BBX 6 10 1 0
BITMAP
18
30
00
78
CC
CC
CC
CC
CC
78
ENDCHAR
STARTCHAR Ocircumflex
ENCODING 212
SWIDTH 667 0
DWIDTH 8 0
BBX 6 10 1 0
BITMAP
38
6C
00
78
CC
CC
CC
CC
CC
78
ENDCHAR
STARTCHAR Otilde
ENCODING 213
SWIDTH 667 0
DWIDTH 8 0
BBX 6 10 1 0
BITMAP
74
5C
00
78
CC
CC
CC
CC
CC
78
ENDCHAR
STARTCHAR Odieresis
ENCODING 214
SWIDTH 667 0
DWIDTH 8 0
BBX 6 10 1 0
BITMAP
6C
6C
00
78
CC
CC
CC
CC
CC
78
ENDCHAR
STARTCHAR multiply
ENCODING 215
SWIDTH 667 0
DWIDTH 8 0
BBX 6 5 1 1
BITMAP
CC
78
30
78
CC
ENDCHAR
STARTCHAR Oslash
ENCODING 216
SWIDTH 667 0
DWIDTH 8 0
BBX 7 8 0 0
BITMAP
02
3C
66
6E
76
76
66
BC
ENDCHAR
STARTCHAR Ugrave
ENCODING 217
SWIDTH 667 0
DWIDTH 8 0
BBX 6 10 1 0
BITMAP
60
30
00
CC
CC
CC
CC
CC
CC
78
ENDCHAR
STARTCHAR Uacute
ENCODING 218
SWIDTH 667 0
DWIDTH 8 0
BBX 6 10 1 0
BITMAP
18
30
00
CC
CC
CC
CC
CC
CC
78
ENDCHAR
STARTCHAR Ucircumflex
ENCODING 219
SWIDTH 667 0
DWIDTH 8 0
BBX 6 10 1 0
BITMAP
38
6C
00
CC
CC
CC
CC
CC
CC
78
ENDCHAR
STARTCHAR Udieresis
ENCODING 220
SWIDTH 667 0
DWIDTH 8 0
BBX 6 10 1 0
BITMAP
6C
6C
00
CC
CC
CC
CC
CC
CC
78
ENDCHAR
STARTCHAR Yacute
ENCODING 221
SWIDTH 667 0
DWIDTH 8 0
BBX 6 10 1 0
BITMAP
18
30
00
CC
CC
78
78
30
30
30
ENDCHAR
STARTCHAR Thorn
ENCODING 222
SWIDTH 667 0
DWIDTH 8 0
BBX 7 8 0 0
BITMAP
F0
60
7C
66
66
7C
60
F0
ENDCHAR
STARTCHAR germandbls
ENCODING 223
SWIDTH 667 0
DWIDTH 8 0
BBX 6 8 1 0
BITMAP
70
D8
D8
F0
D8
CC
EC
D8
ENDCHAR
STARTCHAR agrave
ENCODING 224
SWIDTH 667 0
DWIDTH 8 0
BBX 6 9 1 0
BITMAP
30
18
00
78
0C
7C
CC
CC
7C
ENDCHAR
STARTCHAR aacute
ENCODING 225
SWIDTH 667 0
DWIDTH 8 0
BBX 6 9 1 0
BITMAP
18
30
00
78
0C
7C
CC
CC
7C
ENDCHAR
STARTCHAR acircumflex
ENCODING 226
SWIDTH 667 0
DWIDTH 8 0
BBX 6 9 1 0
BITMAP
38
6C
00
78
0C
7C
CC
CC
7C
ENDCHAR
STARTCHAR atilde
ENCODING 227
SWIDTH 667 0
DWIDTH 8 0
BBX 6 9 1 0
BITMAP
74
5C
00
78
0C
7C
CC
CC
7C
ENDCHAR
STARTCHAR adieresis
ENCODING 228
SWIDTH 667 0
DWIDTH 8 0
BBX 6 9 1 0
BITMAP
6C
6C
00
78
0C
7C
CC
CC
7C
ENDCHAR
STARTCHAR aring
ENCODING 229
SWIDTH 667 0
DWIDTH 8 0
BBX 6 10 1 0
BITMAP
38
28
38
00
78
0C
7C
CC
CC
7C
ENDCHAR
STARTCHAR ae
ENCODING 230
SWIDTH 667 0
DWIDTH 8 0
BBX 8 6 0 0
BITMAP
7E
1B
7E
D8
D8
6E
ENDCHAR
STARTCHAR ccedilla
ENCODING 231
SWIDTH 667 0
DWIDTH 8 0
BBX 6 8 1 -2
BITMAP
78
CC
C0
C0
CC
78
10
30
ENDCHAR
STARTCHAR egrave
ENCODING 232
SWIDTH 667 0
DWIDTH 8 0
BBX 6 9 1 0
BITMAP
60
30
00
78
CC
FC
C0
CC
78
ENDCHAR
STARTCHAR eacute
ENCODING 233
SWIDTH 667 0
DWIDTH 8 0
BBX 6 9 1 0
BITMAP
18
30
00
78
CC
FC
C0
CC
78
ENDCHAR
STARTCHAR ecircumflex
ENCODING 234
SWIDTH 667 0
DWIDTH 8 0
BBX 6 9 1 0
BITMAP
38
6C
00
78
CC
FC
C0
CC
78
ENDCHAR
STARTCHAR edieresis
ENCODING 235
SWIDTH 667 0
DWIDTH 8 0
BBX 6 9 1 0
BITMAP
6C
6C
00
78
CC
FC
C0
CC
78
ENDCHAR
STARTCHAR igrave
ENCODING 236
SWIDTH 667 0
DWIDTH 8 0
BBX 4 9 2 0
BITMAP
60
30
00
F0
30
30
30
30
30
ENDCHAR
STARTCHAR iacute
ENCODING 237
SWIDTH 667 0
DWIDTH 8 0
BBX 4 9 2 0
BITMAP
30
60
00
F0
30
30
30
30
30
ENDCHAR
STARTCHAR icircumflex
ENCODING 238
SWIDTH 667 0
DWIDTH 8 0
BBX 5 9 2 0
BITMAP
70
D8
00
F0
30
30
30
30
30
ENDCHAR
STARTCHAR idieresis
ENCODING 239
SWIDTH 667 0
DWIDTH 8 0
BBX 5 9 2 0
BITMAP
D8
D8
00
F0
30
30
30
30
30
ENDCHAR
STARTCHAR eth
ENCODING 240
SWIDTH 667 0
DWIDTH 8 0
BBX 6 9 1 0
BITMAP
D8
70
98
7C
CC
CC
CC
CC
78
ENDCHAR
STARTCHAR ntilde
ENCODING 241
SWIDTH 667 0
DWIDTH 8 0
BBX 6 9 1 0
BITMAP
E8
B8
00
D8
EC
CC
CC
CC
CC
ENDCHAR
STARTCHAR ograve
ENCODING 242
SWIDTH 667 0
DWIDTH 8 0
BBX 6 9 1 0
BITMAP
60
30
00
78
CC
CC
CC
CC
78
ENDCHAR
STARTCHAR oacute
ENCODING 243
SWIDTH 667 0
DWIDTH 8 0
BBX 6 9 1 0
BITMAP
18
30
00
78
CC
CC
CC
CC
78
ENDCHAR
STARTCHAR ocircumflex
ENCODING 244
SWIDTH 667 0
DWIDTH 8 0
BBX 6 9 1 0
BITMAP
38
6C
00
78
CC
CC
CC
CC
78
ENDCHAR
STARTCHAR otilde
ENCODING 245
SWIDTH 667 0
DWIDTH 8 0
BBX 6 9 1 0
BITMAP
74
5C
00
78
CC
CC
CC
CC
78
ENDCHAR
STARTCHAR odieresis
ENCODING 246
SWIDTH 667 0
DWIDTH 8 0
BBX 6 9 1 0
BITMAP
6C
6C
00
78
CC
CC
CC
CC
78
ENDCHAR
STARTCHAR divide
ENCODING 247
SWIDTH 667 0
DWIDTH 8 0
BBX 6 8 1 0
BITMAP
30
30
00
FC
FC
00
30
30
ENDCHAR
STARTCHAR oslash
ENCODING 248
SWIDTH 667 0
DWIDTH 8 0
BBX 7 7 0 0
BITMAP
02
3C
66
6E
76
66
BC
ENDCHAR
STARTCHAR ugrave
ENCODING 249
SWIDTH 667 0
DWIDTH 8 0
BBX 6 9 1 0
BITMAP
60
30
00
CC
CC
CC
CC
DC
6C
ENDCHAR
STARTCHAR uacute
ENCODING 250
SWIDTH 667 0
DWIDTH 8 0
BBX 6 9 1 0
BITMAP
18
30
00
CC
CC
CC
CC
DC
6C
ENDCHAR
STARTCHAR ucircumflex
ENCODING 251
SWIDTH 667 0
DWIDTH 8 0
BBX 6 9 1 0
BITMAP
38
6C
00
CC
CC
CC
CC
DC
6C
ENDCHAR
STARTCHAR udieresis
ENCODING 252
SWIDTH 667 0
DWIDTH 8 0
BBX 6 9 1 0
BITMAP
6C
6C
00
CC
CC
CC
CC
DC
6C
ENDCHAR
STARTCHAR yacute
ENCODING 253
SWIDTH 667 0
DWIDTH 8 0
BBX 6 11 1 -2
BITMAP
18
30
00
CC
CC
CC
CC
CC
7C
0C
F8
ENDCHAR
STARTCHAR thorn
ENCODING 254
SWIDTH 667 0
DWIDTH 8 0
BBX 7 10 0 -2
BITMAP
E0
60
7C
66
66
66
66
7C
60
F0
ENDCHAR
STARTCHAR ydieresis
ENCODING 255
SWIDTH 667 0
DWIDTH 8 0
BBX 6 11 1 -2
BITMAP
6C
6C
00
CC
CC
CC
CC
CC
7C
0C
F8
ENDCHAR
STARTCHAR quoteright
ENCODING -1
SWIDTH 667 0
DWIDTH 8 0
BBX 3 4 3 5
BITMAP
60
60
C0
80
ENDCHAR
STARTCHAR minus
ENCODING -1
SWIDTH 667 0
DWIDTH 8 0
BBX 5 2 1 3
BITMAP
F8
F8
ENDCHAR
STARTCHAR quoteleft
ENCODING -1
SWIDTH 667 0
DWIDTH 8 0
BBX 3 4 2 5
BITMAP
C0
C0
60
20
ENDCHAR
ENDFONT
